<?xml version="1.0" standalone="no"?>
<!DOCTYPE svg PUBLIC "-//W3C//DTD SVG 20010904//EN"
 "http://www.w3.org/TR/2001/REC-SVG-20010904/DTD/svg10.dtd">
<svg version="1.0" xmlns="http://www.w3.org/2000/svg"
 width="3888.000000pt" height="3888.000000pt" viewBox="0 0 3888.000000 3888.000000"
 preserveAspectRatio="xMidYMid meet">
<metadata>
Created by potrace 1.14, written by Peter Selinger 2001-2017
</metadata>
<g transform="translate(0.000000,3888.000000) scale(0.100000,-0.100000)"
fill="#000000" stroke="none">
<path d="M2100 21773 c-114 -134 -162 -190 -210 -244 -14 -16 -41 -47 -60 -70
-19 -23 -47 -55 -62 -71 -16 -16 -28 -31 -28 -34 0 -3 -11 -17 -25 -32 -14
-15 -45 -49 -70 -76 -25 -27 -45 -51 -45 -55 0 -3 -22 -29 -48 -57 -54 -59
-78 -87 -108 -126 -11 -15 -24 -25 -27 -21 -4 3 -7 0 -7 -8 0 -8 -26 -42 -58
-76 -32 -35 -57 -63 -55 -63 3 0 -18 -26 -69 -83 -21 -23 -38 -45 -38 -49 0
-5 -7 -8 -16 -8 -8 0 -13 -4 -10 -8 2 -4 -21 -36 -53 -70 -31 -34 -56 -62 -54
-62 2 0 -2 -6 -9 -14 -7 -8 -17 -11 -22 -8 -5 3 -6 1 -3 -5 4 -6 -15 -33 -42
-62 -26 -28 -45 -51 -42 -51 3 0 -8 -15 -26 -33 -57 -57 -73 -77 -73 -88 0 -5
-4 -7 -10 -4 -5 3 -10 1 -10 -5 0 -6 -10 -21 -22 -34 -13 -13 -38 -42 -57 -65
-18 -22 -38 -38 -44 -34 -6 4 -7 1 -3 -6 5 -7 -5 -25 -26 -45 -23 -23 -30 -36
-23 -43 5 -6 19 -21 29 -34 11 -13 33 -40 50 -59 17 -20 47 -55 66 -79 19 -24
45 -53 58 -64 15 -14 20 -28 16 -41 -4 -15 -3 -17 4 -8 10 15 7 18 82 -69 25
-29 43 -53 40 -53 -3 -1 11 -16 30 -33 31 -28 33 -32 20 -49 -13 -17 -13 -18
0 -7 10 8 21 9 30 3 8 -6 11 -10 6 -10 -6 0 -2 -6 9 -13 10 -8 15 -19 11 -26
-4 -6 -4 -10 1 -9 13 4 53 -26 53 -39 0 -6 3 -13 8 -15 20 -9 82 -90 76 -100
-4 -6 -3 -8 3 -5 13 8 57 -39 49 -52 -5 -7 -1 -8 10 -4 14 5 16 3 11 -11 -4
-9 -3 -15 2 -12 4 3 26 -15 47 -40 21 -26 45 -52 52 -60 7 -8 11 -14 8 -14 -3
0 12 -16 34 -37 23 -20 39 -42 36 -49 -3 -7 0 -11 7 -8 13 4 54 -54 49 -69 -1
-5 2 -6 7 -3 8 6 58 -46 111 -115 14 -18 35 -43 47 -55 15 -15 18 -25 11 -32
-8 -8 -5 -9 11 -5 11 3 21 1 21 -4 0 -5 13 -23 30 -39 16 -16 30 -34 30 -39 0
-6 11 -19 25 -29 14 -10 25 -24 25 -31 0 -7 7 -16 16 -19 9 -3 14 -13 11 -21
-4 -9 -1 -12 9 -8 7 3 14 1 14 -3 0 -5 14 -23 30 -41 17 -18 30 -34 30 -37 0
-4 18 -23 40 -45 22 -21 40 -41 40 -45 0 -3 14 -19 30 -34 29 -28 42 -61 18
-46 -7 4 -8 3 -4 -5 4 -6 12 -9 17 -5 11 6 39 -13 39 -28 0 -5 -6 -6 -12 -2
-8 4 -10 3 -5 -2 8 -9 12 -10 38 -13 6 0 8 -8 5 -17 -3 -8 -2 -12 3 -9 5 3 17
-5 25 -17 9 -12 17 -20 19 -17 3 2 17 24 32 49 15 25 31 47 34 50 3 3 13 18
21 33 42 79 273 437 282 437 10 0 -9 34 -40 72 -41 49 -56 66 -100 117 -26 30
-46 58 -44 63 1 5 -2 7 -8 3 -5 -3 -10 -3 -10 2 0 4 -13 22 -28 39 -57 66 -79
91 -140 164 -57 66 -95 112 -174 203 -13 14 -34 40 -48 58 -14 17 -35 42 -47
55 -13 13 -23 25 -23 28 0 3 -12 18 -27 34 -16 15 -39 43 -53 61 -14 18 -36
44 -50 57 -24 24 -25 25 -6 39 11 8 15 15 10 15 -6 0 -15 -5 -20 -10 -8 -8
-22 2 -48 32 -20 24 -50 58 -67 76 -17 19 -27 38 -23 45 4 6 4 9 -1 5 -9 -8
-81 70 -77 84 1 4 -5 8 -14 8 -8 0 -12 5 -9 10 3 6 1 10 -6 10 -7 0 -2 10 11
23 14 12 28 21 33 19 5 -1 6 2 3 7 -7 11 31 55 54 64 12 4 12 6 1 6 -9 1 -2
13 18 31 17 17 31 33 31 36 0 3 15 21 33 39 17 19 42 46 54 62 12 15 39 47 61
71 21 23 36 42 33 42 -3 0 8 12 24 28 16 15 33 26 38 24 5 -1 6 2 2 8 -3 6 5
23 19 38 13 15 40 46 59 69 19 23 37 39 41 36 3 -4 6 1 6 10 0 9 6 20 14 24 7
4 18 18 25 31 7 12 16 20 22 17 5 -4 8 -2 7 3 -3 9 51 78 110 139 17 18 32 38
32 43 0 4 3 10 8 12 4 2 31 32 61 68 30 36 64 75 75 87 12 11 32 36 46 54 14
18 39 48 56 66 17 18 29 33 26 33 -3 0 7 11 22 25 14 13 26 30 26 38 0 12 -54
103 -70 117 -3 3 -11 16 -18 30 -6 14 -52 88 -102 165 -113 174 -150 234 -150
240 1 6 -27 35 -32 34 -2 0 -55 -61 -118 -136z"/>
<path d="M5425 21860 c-16 -28 -36 -58 -43 -68 -12 -16 -120 -185 -145 -227
-7 -11 -22 -34 -34 -52 -13 -17 -23 -34 -23 -38 0 -3 -5 -11 -10 -18 -21 -24
-80 -122 -80 -132 0 -6 14 -25 30 -43 17 -18 30 -36 30 -40 0 -4 9 -14 19 -22
11 -7 18 -17 15 -22 -3 -4 1 -8 9 -8 8 0 18 -8 23 -19 10 -20 89 -115 117
-140 9 -8 17 -19 17 -22 0 -4 15 -23 33 -42 48 -51 67 -76 67 -88 0 -5 5 -7
10 -4 6 3 10 3 10 -2 0 -4 16 -26 35 -47 19 -21 32 -43 28 -49 -3 -6 -2 -7 4
-4 5 3 22 -10 39 -30 16 -19 37 -44 46 -55 10 -12 15 -25 12 -30 -3 -4 0 -7 8
-6 7 2 12 -3 10 -10 -1 -8 2 -11 7 -8 12 8 82 -84 74 -97 -3 -5 -1 -7 4 -4 11
7 85 -69 96 -97 4 -9 11 -16 17 -16 5 0 10 -5 10 -11 0 -6 12 -20 26 -31 14
-12 23 -27 20 -35 -3 -8 -2 -12 3 -9 9 6 61 -48 61 -65 0 -5 5 -7 10 -4 6 3
10 3 10 -2 0 -4 14 -22 30 -40 17 -18 30 -35 30 -38 0 -3 12 -18 28 -33 62
-64 71 -79 58 -98 -8 -11 -18 -14 -26 -9 -8 5 -11 4 -7 -3 11 -17 -4 -44 -21
-37 -9 3 -13 3 -10 -1 10 -10 -11 -46 -23 -39 -5 4 -9 3 -8 -2 4 -15 -13 -43
-22 -37 -5 3 -9 -1 -9 -8 0 -8 -16 -29 -35 -48 -19 -19 -35 -41 -35 -49 0 -8
-6 -11 -16 -7 -8 3 -12 2 -9 -4 6 -9 -21 -44 -85 -109 -19 -20 -32 -36 -30
-36 5 0 -40 -53 -77 -92 -12 -13 -20 -23 -17 -23 3 0 -5 -11 -18 -24 -57 -58
-98 -107 -98 -116 0 -6 -3 -10 -8 -10 -4 0 -27 -25 -51 -55 -24 -30 -48 -52
-54 -48 -5 3 -7 2 -4 -4 4 -5 -1 -19 -11 -29 -9 -10 -46 -54 -81 -96 -35 -43
-68 -78 -72 -78 -5 0 -9 -5 -9 -10 0 -9 -34 -51 -82 -102 -10 -10 -18 -22 -18
-27 0 -5 -9 -13 -21 -16 -11 -4 -18 -9 -15 -12 3 -3 -13 -26 -34 -51 -36 -40
-52 -82 -32 -82 12 0 42 -61 35 -72 -3 -6 -1 -8 4 -5 15 9 106 -139 97 -155
-4 -7 -4 -10 1 -6 7 6 35 -14 35 -26 0 -2 18 -32 40 -65 22 -33 40 -65 40 -71
0 -5 3 -10 8 -10 4 0 27 -34 52 -75 25 -41 48 -75 51 -75 4 0 14 11 23 25 9
14 21 23 27 20 5 -4 8 -1 7 7 -2 7 5 12 16 11 13 -1 15 2 7 10 -7 7 0 22 26
51 35 39 63 61 49 38 -3 -6 -2 -13 3 -16 5 -4 7 7 5 24 -3 18 -1 30 6 30 6 0
8 -5 4 -12 -4 -7 -3 -8 5 -4 6 4 9 11 6 16 -8 13 55 81 68 73 6 -3 7 -1 3 5
-7 12 41 68 56 64 5 -1 6 2 3 8 -4 6 4 23 18 38 14 15 43 47 64 71 21 24 48
55 61 69 12 14 22 29 22 34 0 5 5 6 10 3 6 -3 10 -1 10 6 0 6 11 22 26 35 14
13 22 24 19 24 -3 0 7 12 22 28 15 15 31 26 36 24 5 -1 5 2 2 9 -4 6 7 24 24
41 17 17 31 34 31 39 0 5 5 9 11 9 5 0 7 -5 3 -12 -4 -7 -3 -8 4 -4 6 4 8 14
5 23 -5 12 -2 15 10 10 10 -4 14 -2 11 7 -3 7 10 28 28 47 18 19 53 58 77 87
24 28 47 49 52 46 5 -3 6 2 3 10 -3 9 5 21 20 31 14 10 26 22 26 27 0 12 72
84 81 81 4 -1 6 5 5 15 0 9 5 16 12 14 8 -1 11 2 8 6 -7 12 28 44 38 35 4 -4
4 0 1 9 -4 10 2 22 17 32 12 9 19 16 15 16 -4 0 5 13 21 28 16 16 32 35 35 43
4 12 6 11 7 -1 0 -8 7 0 15 18 8 18 19 31 25 27 6 -4 9 -2 8 3 -4 13 74 102
84 96 5 -3 7 -1 6 5 -5 16 35 71 51 71 8 0 12 3 8 6 -3 4 0 12 7 19 6 7 32 36
57 65 24 29 62 73 84 98 22 25 46 54 54 66 8 12 20 24 27 29 9 5 5 15 -14 35
-31 32 -78 86 -142 162 -25 29 -49 58 -55 64 -79 87 -135 156 -135 167 0 7 -3
10 -6 6 -7 -7 -54 46 -54 62 0 6 -6 11 -12 11 -7 0 -23 15 -35 33 -13 17 -38
48 -56 67 -18 19 -50 57 -72 85 -22 27 -51 61 -65 75 -14 14 -42 47 -63 72
-21 26 -43 53 -50 60 -71 75 -127 149 -121 159 4 7 3 9 -3 6 -11 -7 -37 15
-73 63 -14 19 -35 43 -47 54 -13 11 -23 23 -23 27 0 4 -17 25 -38 46 -20 21
-47 50 -58 65 -18 24 -101 121 -129 152 -5 6 -26 30 -45 52 -69 81 -120 140
-154 179 -20 22 -55 63 -78 92 -24 29 -45 52 -48 52 -3 0 -18 -22 -35 -49z"/>
<path d="M4287 21883 c-4 -3 -66 -6 -139 -7 l-133 -1 -21 -65 c-40 -124 -95
-305 -100 -329 -3 -14 -8 -29 -12 -35 -3 -6 -7 -16 -8 -23 -3 -17 -41 -142
-72 -238 -14 -44 -27 -85 -28 -92 -1 -7 -13 -47 -27 -90 -14 -43 -37 -118 -52
-168 -14 -49 -33 -109 -41 -131 -8 -23 -16 -51 -19 -63 -2 -11 -7 -26 -10 -31
-3 -5 -8 -18 -10 -28 -1 -9 -16 -58 -31 -107 -15 -50 -29 -93 -30 -97 -1 -5
-3 -10 -4 -13 -1 -3 -3 -8 -4 -12 -1 -5 -6 -24 -10 -43 -5 -19 -12 -41 -17
-50 -7 -12 -17 -45 -35 -112 -1 -5 -2 -9 -4 -10 -1 -2 -4 -16 -6 -33 -3 -16
-9 -34 -13 -40 -7 -8 -18 -43 -26 -80 -2 -5 -10 -32 -20 -60 -9 -27 -18 -57
-20 -65 -7 -35 -49 -165 -54 -170 -3 -3 -7 -16 -9 -30 -1 -14 -5 -32 -9 -40
-3 -8 -7 -17 -7 -20 -9 -43 -93 -307 -99 -311 -5 -3 -7 -8 -6 -10 6 -7 -24
-119 -31 -119 -4 0 -8 -6 -7 -12 1 -32 -4 -49 -12 -44 -5 4 -7 -3 -4 -14 3
-12 0 -20 -6 -20 -7 0 -10 -4 -6 -10 3 -5 -4 -38 -15 -72 -12 -35 -23 -70 -25
-78 -2 -8 -17 -60 -35 -115 -17 -55 -32 -107 -34 -115 -3 -8 -26 -82 -51 -165
-26 -82 -48 -154 -50 -160 -1 -5 -5 -17 -8 -25 -22 -60 -28 -57 138 -57 84 0
158 -4 165 -8 7 -5 11 -4 7 1 -6 11 55 10 73 -1 7 -5 11 -4 7 1 -3 5 54 8 136
7 78 0 147 3 154 9 6 5 14 27 18 49 4 21 11 41 16 45 5 3 7 9 4 14 -3 5 3 13
12 19 10 6 13 11 6 11 -9 0 -9 8 -2 30 7 18 16 27 22 24 9 -5 9 -4 1 5 -11 12
-7 35 17 96 14 36 23 66 33 118 5 20 12 37 16 37 4 0 7 8 7 18 -2 34 26 102
42 103 10 0 12 2 4 6 -15 6 -17 33 -3 33 6 0 9 3 9 8 -4 23 2 52 10 48 4 -3 6
6 3 21 -3 18 -1 24 6 19 8 -5 10 -2 6 8 -3 9 -1 16 6 16 6 0 9 4 5 10 -7 12 5
61 14 55 4 -2 7 6 6 18 -1 12 4 37 12 54 7 18 13 34 12 35 0 2 2 10 5 18 3 8
14 47 25 85 10 39 24 82 29 96 6 15 8 30 5 33 -4 3 -1 6 5 6 7 0 11 3 10 8 -1
4 4 28 12 55 13 43 21 52 43 48 5 -1 6 3 2 8 -3 6 -12 8 -20 5 -13 -5 -13 -1
0 30 8 20 16 39 16 43 2 9 1 8 24 83 9 30 19 62 22 70 9 23 21 67 22 83 1 5 5
5 11 2 5 -3 7 0 4 8 -3 8 4 43 16 78 12 35 23 71 25 79 11 55 27 100 35 105 6
4 8 10 5 15 -3 5 1 25 9 45 9 20 15 39 15 43 -1 4 0 10 1 15 4 12 7 26 9 38 0
5 5 8 9 5 4 -2 8 3 8 12 1 9 4 28 7 42 13 61 20 80 27 75 5 -3 12 0 16 6 5 8
3 9 -6 4 -19 -11 -1 56 19 73 9 8 10 10 2 6 -10 -5 -13 -3 -9 7 3 8 15 48 27
89 13 41 25 82 28 90 8 20 9 21 18 55 4 17 10 35 14 40 3 6 6 16 8 24 1 8 9
37 18 65 10 28 19 58 20 66 2 8 4 16 5 18 2 1 4 7 5 12 1 6 3 11 4 13 2 1 5
13 7 27 3 14 9 27 14 28 6 2 8 8 4 13 -7 12 5 51 15 44 5 -2 6 7 3 20 -2 14 0
25 6 25 6 0 8 9 5 20 -3 11 -1 20 4 20 5 0 10 11 11 26 1 14 6 34 12 44 5 10
10 28 10 39 0 12 5 21 12 21 6 0 9 3 6 6 -4 3 -3 18 2 32 4 15 36 117 69 227
34 110 64 211 67 224 3 13 9 32 15 43 5 10 7 23 4 28 -7 12 -362 16 -374 5 -2
-2 -11 0 -21 5 -10 5 -20 7 -23 3z"/>
<path d="M32030 21562 c-115 -55 -174 -140 -177 -254 -2 -80 16 -131 65 -189
90 -104 230 -140 365 -92 26 9 47 21 47 25 0 4 5 8 10 8 22 0 81 66 107 118
21 43 27 69 27 121 -1 113 -57 201 -165 258 -46 23 -67 28 -139 30 -74 2 -92
-2 -140 -25z"/>
<path d="M30831 21430 c-4 -3 -7 -630 -6 -1395 l0 -1390 55 -5 c30 -3 66 -3
80 1 14 3 38 3 54 0 16 -3 63 -4 105 -1 42 3 101 3 131 0 30 -3 78 -3 105 0
l50 5 0 1393 c0 1323 -1 1392 -17 1393 -72 4 -551 3 -557 -1z"/>
<path d="M21338 21235 c0 0 -2 -103 -4 -230 -1 -126 -3 -239 -3 -251 -1 -20
-5 -21 -141 -19 -121 1 -140 -1 -141 -14 -4 -72 -1 -412 4 -417 3 -4 67 -6
142 -6 99 1 135 -2 136 -11 0 -7 2 -277 3 -602 2 -324 7 -603 11 -620 10 -43
11 -47 20 -80 13 -51 68 -145 110 -189 86 -90 184 -140 335 -171 66 -13 299
-14 370 0 46 8 153 36 161 41 4 2 2 23 -3 46 -23 102 -42 189 -62 293 -15 74
-23 90 -42 88 -49 -7 -110 -14 -119 -15 -31 -3 -103 15 -124 30 -35 26 -60 63
-68 97 -3 17 -7 269 -7 560 l-1 530 150 2 c83 1 171 2 197 2 l47 1 0 218 0
217 -197 0 -197 0 -1 240 c-1 132 -2 245 -3 251 -1 7 -90 10 -286 10 -157 0
-286 -1 -287 -1z"/>
<path d="M4996 21153 c-6 -14 -5 -15 5 -6 7 7 10 15 7 18 -3 3 -9 -2 -12 -12z"/>
<path d="M4587 21079 c7 -7 15 -10 18 -7 3 3 -2 9 -12 12 -14 6 -15 5 -6 -5z"/>
<path d="M2430 20921 c0 -6 4 -13 10 -16 6 -3 7 1 4 9 -7 18 -14 21 -14 7z"/>
<path d="M5155 20760 c3 -5 8 -10 11 -10 2 0 4 5 4 10 0 6 -5 10 -11 10 -5 0
-7 -4 -4 -10z"/>
<path d="M5393 20755 c0 -8 4 -12 9 -9 5 3 6 10 3 15 -9 13 -12 11 -12 -6z"/>
<path d="M10668 20766 c-1 -2 -46 -6 -98 -10 -52 -3 -108 -9 -125 -12 -70 -12
-157 -35 -190 -48 -19 -8 -35 -13 -35 -10 0 8 -153 -76 -190 -104 -56 -42
-118 -111 -147 -161 -15 -25 -31 -47 -35 -49 -4 -2 -8 -14 -8 -27 0 -13 -4
-26 -9 -29 -5 -3 -12 -20 -15 -38 -3 -18 -9 -44 -12 -58 -8 -35 -9 -157 -1
-205 14 -86 19 -102 49 -162 52 -104 152 -196 278 -255 57 -27 158 -63 201
-72 13 -3 35 -7 49 -10 14 -3 36 -8 50 -11 33 -7 68 -14 105 -21 17 -3 50 -10
75 -15 25 -6 62 -13 83 -16 49 -6 59 -9 77 -16 8 -4 26 -8 40 -11 90 -16 196
-84 208 -134 21 -91 6 -141 -59 -194 -66 -52 -142 -76 -254 -78 -96 -2 -154 8
-221 40 -74 36 -135 100 -160 169 -16 47 -18 48 -53 45 -20 -1 -92 -5 -161 -8
-391 -18 -374 -16 -366 -44 3 -9 8 -31 10 -47 20 -140 170 -352 295 -417 14
-7 28 -15 31 -18 21 -23 212 -96 280 -106 8 -2 26 -5 40 -8 99 -23 317 -34
430 -21 49 6 123 18 189 31 95 19 275 102 348 160 60 48 152 145 153 161 0 6
4 13 8 15 21 9 76 148 87 222 43 297 -102 507 -426 616 -61 21 -79 26 -124 36
-29 6 -167 35 -185 38 -8 1 -28 6 -45 9 -16 4 -45 9 -64 12 -19 3 -38 8 -41
10 -4 3 -28 7 -53 10 -25 3 -72 15 -104 26 -32 11 -63 21 -68 22 -26 6 -87 51
-107 79 -26 38 -32 106 -13 152 24 57 102 113 184 132 14 4 62 8 107 10 84 3
154 -10 214 -41 52 -26 118 -101 137 -154 16 -45 18 -47 52 -45 20 1 74 5 121
8 47 3 130 8 185 11 154 10 186 13 189 16 6 7 -31 138 -54 192 -13 28 -36 72
-53 97 -36 52 -147 164 -186 184 -175 95 -300 132 -491 142 -52 3 -100 7 -107
9 -6 2 -13 2 -15 1z"/>
<path d="M13189 20766 c-2 -2 -38 -6 -79 -10 -41 -3 -93 -11 -115 -18 -22 -6
-42 -12 -45 -12 -47 -8 -165 -81 -225 -141 -46 -46 -135 -175 -135 -196 0 -6
-6 -9 -12 -6 -8 2 -14 27 -15 68 -2 35 -3 71 -4 79 0 8 0 47 1 85 1 39 1 81 1
95 l-1 25 -282 -1 c-156 -1 -285 -2 -288 -3 -7 -1 -4 -2857 3 -2868 3 -5 133
-8 289 -8 l283 0 3 555 c1 305 6 558 10 562 4 4 18 -14 32 -40 72 -138 208
-251 360 -296 89 -27 231 -38 310 -24 25 5 56 10 70 12 80 11 208 65 288 124
194 140 320 364 371 658 15 88 18 146 15 299 -4 219 -4 225 -38 366 -29 127
-111 307 -169 376 -109 128 -187 192 -299 242 -89 41 -155 58 -252 67 -33 3
-63 7 -66 9 -4 3 -9 3 -11 1z m-113 -475 c154 -29 263 -136 320 -315 30 -95
38 -163 38 -301 0 -160 -19 -252 -76 -373 -69 -147 -202 -232 -367 -232 -63 0
-191 35 -191 52 0 4 -6 8 -14 8 -7 0 -36 23 -64 51 -54 54 -114 163 -132 239
-6 25 -13 54 -15 65 -25 100 -21 351 5 420 5 13 6 26 3 29 -3 3 0 13 8 22 8
10 12 18 10 18 -7 2 23 86 31 86 5 0 7 4 4 9 -3 5 4 22 16 37 13 16 27 35 33
42 53 71 140 128 207 136 3 1 9 3 11 6 10 10 120 11 173 1z"/>
<path d="M15257 20763 c-1 0 -35 -4 -76 -7 -41 -4 -84 -9 -95 -11 -12 -3 -34
-7 -49 -9 -36 -6 -136 -34 -162 -46 -259 -113 -394 -256 -466 -492 -16 -54
-16 -58 -1 -59 10 0 26 -2 37 -4 11 -2 63 -6 115 -9 52 -4 111 -9 130 -11 19
-2 81 -6 137 -9 l102 -7 26 53 c62 124 185 186 360 182 167 -3 268 -76 293
-210 17 -98 -2 -145 -72 -179 -49 -23 -164 -48 -278 -60 -29 -3 -75 -7 -103
-10 -97 -10 -150 -16 -175 -20 -14 -3 -41 -7 -60 -10 -103 -17 -247 -68 -332
-118 -108 -63 -209 -189 -239 -297 -7 -25 -14 -52 -17 -60 -2 -8 -5 -64 -7
-125 -3 -115 11 -209 41 -274 9 -20 23 -52 32 -71 18 -41 164 -190 186 -190 8
0 16 -3 18 -7 8 -19 168 -79 237 -88 40 -6 180 -17 196 -17 261 15 430 98 558
274 15 20 27 41 27 47 0 15 17 14 22 -1 2 -7 4 -71 3 -143 0 -151 -7 -143 113
-135 42 3 102 3 132 0 30 -3 78 -3 105 0 28 3 75 3 106 0 31 -3 65 -3 75 0 19
5 19 23 18 750 -1 410 -4 764 -7 787 -18 117 -84 249 -167 335 -55 56 -186
148 -212 148 -8 0 -18 4 -24 9 -17 16 -118 48 -199 65 -83 16 -319 38 -328 29z
m358 -1300 c-1 -82 -5 -158 -8 -171 -21 -85 -109 -192 -194 -235 -135 -69
-323 -71 -429 -6 -78 48 -107 102 -107 206 1 55 35 130 77 165 49 40 155 79
251 93 22 3 51 7 65 10 14 2 41 7 60 9 19 3 46 8 60 11 14 3 39 7 55 9 23 3
163 48 172 55 1 0 0 -65 -2 -146z"/>
<path d="M17526 20762 c-2 -1 -30 -5 -64 -8 -34 -3 -71 -7 -84 -10 -13 -2 -35
-6 -49 -9 -51 -9 -181 -56 -242 -86 -176 -88 -316 -233 -410 -424 -24 -47 -78
-195 -72 -195 3 0 0 -11 -5 -24 -5 -13 -12 -44 -15 -67 -4 -24 -10 -60 -14
-79 -9 -41 -7 -313 3 -385 16 -113 69 -282 114 -365 56 -101 46 -87 117 -172
31 -37 82 -88 113 -113 31 -26 64 -52 73 -59 64 -52 304 -142 408 -153 81 -8
105 -11 111 -13 11 -3 138 0 195 5 377 31 646 221 770 540 5 11 9 25 10 30 2
6 8 30 15 55 7 25 14 59 16 75 1 17 5 46 8 66 l6 37 -274 0 -274 0 -17 -62
c-32 -117 -106 -209 -205 -255 -47 -22 -69 -26 -155 -26 -154 0 -236 39 -335
162 -38 47 -92 190 -105 278 -10 66 -11 300 -2 350 45 241 152 388 318 438 48
15 174 16 224 3 135 -35 235 -150 269 -308 l6 -28 274 0 274 0 -2 28 c-17 174
-78 336 -171 451 -142 177 -383 295 -645 317 -79 6 -181 10 -184 6z"/>
<path d="M19765 20759 c-13 -4 -26 -5 -28 -3 -7 7 -146 -16 -207 -34 -30 -9
-57 -16 -60 -17 -52 -9 -191 -84 -271 -146 -54 -43 -169 -158 -169 -171 0 -4
-6 -13 -13 -20 -59 -59 -165 -318 -182 -443 -1 -11 -6 -42 -10 -70 -16 -101
-11 -301 10 -420 3 -16 7 -42 10 -56 14 -95 78 -254 140 -350 59 -91 65 -98
189 -214 66 -62 275 -163 374 -181 28 -5 60 -11 92 -18 23 -5 149 -17 195 -19
46 -1 218 14 257 22 24 6 58 13 77 16 86 15 274 98 341 151 53 41 149 141 182
189 36 52 91 177 103 233 5 23 3 32 -7 33 -7 1 -33 3 -58 4 -25 2 -85 6 -135
9 -77 5 -244 16 -310 20 -14 1 -25 -10 -37 -36 -40 -89 -163 -178 -269 -194
-55 -9 -192 -8 -239 1 -68 12 -160 63 -215 119 -78 78 -128 200 -134 322 l-2
52 706 0 c387 1 709 3 713 6 14 8 5 305 -12 396 -3 19 -8 46 -10 60 -3 14 -7
35 -10 48 -4 12 -8 30 -10 40 -17 75 -103 247 -161 322 -129 168 -311 280
-527 325 -114 24 -267 36 -313 24z m201 -447 c172 -54 278 -182 300 -364 l6
-48 -33 0 c-203 -3 -843 1 -847 5 -12 12 31 157 62 207 62 104 172 185 276
203 19 3 36 8 38 10 8 7 167 -3 198 -13z"/>
<path d="M23698 20759 c-171 -26 -301 -121 -382 -279 -19 -39 -33 -70 -30 -70
2 0 0 -9 -6 -20 -24 -44 -30 -14 -32 162 l-3 183 -277 0 c-242 0 -278 -2 -279
-15 -4 -67 -3 -2064 2 -2071 4 -8 190 -11 515 -9 l62 0 0 615 c0 339 3 634 7
658 10 59 56 156 95 200 54 62 143 114 230 135 58 14 271 6 336 -13 21 -7 21
-6 21 250 0 141 -3 258 -7 260 -24 15 -187 24 -252 14z"/>
<path d="M25046 20763 c-1 -1 -38 -5 -82 -8 -43 -2 -90 -7 -104 -10 -248 -48
-417 -140 -543 -296 -40 -49 -114 -184 -121 -221 -3 -13 -9 -38 -15 -55 -9
-31 -8 -33 17 -34 15 -1 41 -3 57 -5 92 -9 180 -17 349 -29 50 -3 93 -8 97
-10 3 -3 14 16 24 40 20 54 87 126 145 155 88 45 257 59 345 29 43 -14 100
-52 127 -84 32 -37 52 -119 49 -197 -2 -47 -58 -99 -121 -113 -8 -2 -35 -8
-60 -13 -50 -12 -101 -19 -175 -27 -141 -14 -223 -23 -280 -31 -215 -33 -387
-106 -494 -212 -63 -63 -121 -152 -121 -187 0 -8 -5 -15 -12 -15 -6 0 -9 -3
-6 -6 3 -3 0 -31 -8 -62 -21 -87 -12 -269 17 -357 23 -71 62 -149 85 -172 7
-7 21 -23 31 -36 24 -30 107 -97 121 -97 6 0 12 -3 14 -7 8 -20 164 -77 235
-87 46 -7 144 -18 158 -18 61 -1 198 17 250 32 78 22 165 60 165 72 0 4 7 8
15 8 21 0 155 136 180 183 18 34 34 47 36 30 1 -5 2 -67 3 -140 0 -72 4 -134
7 -138 7 -7 526 -8 538 -1 8 5 6 1502 -3 1536 -3 14 -9 38 -11 54 -3 16 -10
37 -16 47 -5 11 -7 19 -5 19 7 0 -43 98 -68 135 -32 46 -116 128 -167 162 -82
56 -246 124 -332 138 -12 2 -35 6 -52 9 -16 3 -68 8 -115 11 -132 10 -151 11
-154 8z m350 -1300 c-2 -152 -18 -236 -52 -263 -7 -7 -14 -17 -14 -23 0 -19
-89 -96 -141 -122 -69 -35 -156 -53 -241 -50 -137 5 -220 44 -262 125 -31 58
-32 63 -30 121 5 141 119 233 329 264 89 13 111 16 135 21 14 2 41 7 60 10 50
7 180 43 199 54 9 5 17 10 17 10 1 0 1 -66 0 -147z"/>
<path d="M29469 20766 c-2 -2 -44 -6 -94 -10 -124 -9 -147 -13 -229 -37 -437
-128 -699 -517 -700 -1039 0 -70 11 -223 19 -255 22 -99 38 -163 47 -184 6
-14 12 -31 14 -38 5 -25 88 -183 96 -183 4 0 8 -5 8 -11 0 -28 130 -163 217
-225 172 -123 393 -186 638 -184 144 2 228 12 335 41 41 11 81 21 88 21 6 1
12 5 12 10 0 4 8 8 18 8 9 0 30 7 46 15 85 45 132 72 154 90 116 95 178 168
230 271 31 62 67 172 59 180 -3 3 -36 7 -73 9 -38 3 -103 7 -144 10 -41 3
-113 8 -160 11 -47 2 -100 6 -118 7 -30 3 -36 -1 -54 -37 -48 -94 -149 -166
-266 -190 -62 -13 -186 -14 -242 -1 -74 16 -161 64 -214 118 -85 87 -121 173
-133 314 l-5 61 706 0 c388 0 709 3 714 6 9 6 8 242 -2 331 -12 98 -61 304
-76 315 -4 3 -11 16 -15 30 -21 70 -142 244 -208 299 -16 14 -35 30 -41 37
-22 21 -156 104 -169 104 -7 0 -17 4 -22 9 -12 10 -113 48 -150 56 -14 3 -37
7 -52 11 -15 3 -29 7 -33 9 -4 2 -46 7 -95 10 -49 3 -92 8 -95 10 -4 3 -9 3
-11 1z m106 -450 c116 -24 228 -111 279 -220 23 -49 54 -182 44 -192 -4 -3
-562 -6 -821 -4 l-59 0 6 44 c14 99 60 189 133 261 51 49 152 104 204 110 17
3 33 6 36 8 6 7 136 1 178 -7z"/>
<path d="M34098 20765 c-1 -2 -34 -6 -71 -10 -85 -8 -181 -37 -261 -78 -65
-34 -191 -151 -216 -202 -8 -16 -17 -32 -20 -35 -3 -3 -13 -22 -23 -43 -9 -21
-22 -35 -27 -32 -6 4 -10 78 -10 186 0 136 -3 179 -12 180 -7 1 -131 2 -275 3
-227 1 -263 -1 -264 -14 -5 -70 -3 -2064 2 -2072 4 -6 43 -10 95 -8 49 1 94 2
99 2 45 -1 300 -3 336 -3 l46 1 0 628 c0 345 4 645 7 666 10 62 18 89 34 121
9 17 17 36 18 43 1 7 16 27 33 43 17 16 27 29 23 29 -4 0 15 16 42 35 64 45
135 68 224 71 187 5 311 -75 365 -239 20 -60 20 -88 22 -724 1 -365 4 -665 7
-668 3 -3 119 -5 259 -5 140 1 268 1 286 0 l31 -1 -3 733 c-3 686 -5 771 -19
823 -3 11 -9 36 -14 55 -57 220 -210 391 -417 466 -78 29 -99 33 -195 40 -41
3 -80 7 -87 9 -6 2 -13 2 -15 0z"/>
<path d="M36005 20762 c-2 -2 -20 -5 -41 -8 -114 -13 -238 -62 -344 -134 -62
-42 -166 -148 -195 -197 -11 -18 -23 -33 -28 -33 -4 0 -6 -4 -2 -9 3 -5 1 -12
-5 -16 -22 -13 -104 -215 -116 -285 -3 -14 -7 -33 -10 -42 -22 -74 -29 -158
-28 -353 1 -200 3 -229 36 -363 30 -126 82 -244 147 -332 33 -45 137 -150 176
-177 77 -53 189 -102 270 -119 11 -2 31 -7 45 -10 45 -11 254 -13 305 -3 28 5
59 11 71 13 57 11 177 72 236 120 57 47 148 162 148 187 0 5 7 9 15 9 13 0 15
-30 12 -237 -4 -249 -7 -271 -37 -340 -38 -87 -142 -166 -248 -191 -37 -8
-260 -8 -295 0 -127 31 -222 95 -267 182 -18 35 -27 44 -44 40 -11 -2 -45 -7
-75 -10 -30 -3 -64 -8 -75 -10 -12 -3 -41 -7 -66 -9 -41 -4 -102 -13 -140 -20
-8 -2 -44 -6 -80 -10 -36 -4 -68 -9 -72 -11 -3 -2 -2 -20 4 -40 39 -142 135
-272 268 -362 30 -20 57 -40 58 -44 2 -5 8 -8 14 -8 6 0 34 -11 62 -24 76 -36
170 -65 271 -83 132 -24 450 -23 565 2 14 3 36 7 50 10 101 19 330 107 330
128 0 4 4 7 10 7 23 0 138 101 196 172 59 73 104 175 129 293 16 72 17 183 19
1178 1 723 -2 1101 -9 1105 -17 11 -565 8 -566 -3 -1 -5 -2 -84 -3 -174 -1
-122 -4 -165 -13 -168 -7 -3 -13 1 -13 7 0 19 -83 142 -126 186 -98 102 -226
162 -377 179 -66 8 -157 12 -162 7z m355 -474 c114 -27 207 -103 264 -215 102
-203 104 -534 4 -739 -48 -99 -152 -191 -238 -209 -11 -3 -30 -7 -42 -10 -56
-14 -165 -6 -228 15 -73 25 -163 91 -181 133 -6 15 -15 27 -20 27 -5 0 -9 7
-9 15 0 8 -4 15 -9 15 -10 0 -59 144 -68 202 -12 77 -8 320 6 373 41 155 84
238 158 306 43 39 127 82 178 92 42 8 142 5 185 -5z"/>
<path d="M26190 20727 c0 -4 18 -60 41 -125 22 -64 42 -121 43 -127 2 -5 6
-17 9 -25 4 -8 31 -85 61 -170 29 -85 56 -162 59 -170 13 -33 90 -256 92 -265
1 -5 5 -17 8 -25 4 -8 36 -98 71 -200 35 -102 92 -264 126 -360 34 -96 68
-197 77 -225 8 -27 18 -54 22 -60 5 -5 14 -32 21 -60 7 -27 16 -54 20 -60 4
-5 22 -54 39 -107 18 -54 36 -100 41 -103 11 -7 179 -10 185 -3 3 2 26 2 52
-1 27 -3 82 -4 123 -1 41 3 100 3 130 0 30 -3 79 -3 109 0 l53 5 25 70 c13 39
27 77 30 85 3 8 7 20 9 25 3 14 63 187 71 205 3 8 7 20 9 25 1 6 21 62 44 125
23 63 53 149 67 190 14 41 46 131 70 200 24 69 46 132 48 140 2 8 34 98 71
200 36 102 68 194 71 205 3 11 8 29 13 40 11 28 75 210 95 270 8 28 18 57 22
65 22 56 74 208 76 225 2 19 -6 19 -301 20 l-303 0 -19 -65 c-36 -123 -101
-345 -105 -360 -2 -8 -4 -15 -5 -15 -1 0 -3 -7 -5 -15 -4 -19 -72 -257 -120
-420 -21 -69 -41 -138 -45 -155 -4 -16 -33 -117 -64 -222 -31 -106 -56 -199
-56 -206 0 -8 -8 -22 -19 -31 -18 -16 -19 -16 -24 6 -3 13 -15 57 -27 98 -12
41 -25 89 -30 105 -5 17 -27 93 -50 170 -23 77 -50 172 -61 210 -24 87 -25 89
-43 150 -100 344 -138 473 -141 490 -3 11 -9 31 -14 45 -5 14 -21 68 -36 120
l-27 95 -304 0 c-167 0 -304 -3 -304 -8z"/>
<path d="M31880 20732 c-7 -3 -10 -359 -10 -1047 l0 -1044 48 -1 c26 -1 58 -1
72 -2 14 0 59 0 100 1 41 1 138 2 214 1 77 0 141 2 143 4 3 3 6 1943 3 2076 0
13 -38 15 -280 15 -154 0 -284 -1 -290 -3z"/>
<path d="M2094 20662 c4 -3 14 -7 22 -8 9 -1 13 0 10 4 -4 3 -14 7 -22 8 -9 1
-13 0 -10 -4z"/>
<path d="M2169 20637 c6 -8 7 -18 3 -22 -4 -5 -1 -5 6 -1 10 6 10 11 1 22 -6
8 -14 14 -16 14 -3 0 0 -6 6 -13z"/>
<path d="M4435 20609 c-4 -6 -5 -12 -2 -15 2 -3 7 2 10 11 7 17 1 20 -8 4z"/>
<path d="M2195 20580 c3 -5 8 -10 11 -10 2 0 4 5 4 10 0 6 -5 10 -11 10 -5 0
-7 -4 -4 -10z"/>
<path d="M5606 20578 c3 -5 10 -6 15 -3 13 9 11 12 -6 12 -8 0 -12 -4 -9 -9z"/>
<path d="M5655 20580 c-3 -5 -1 -10 4 -10 6 0 11 5 11 10 0 6 -2 10 -4 10 -3
0 -8 -4 -11 -10z"/>
<path d="M5460 20560 c-9 -6 -10 -10 -3 -10 6 0 15 5 18 10 8 12 4 12 -15 0z"/>
<path d="M5615 20551 c-3 -5 -2 -12 3 -15 5 -3 9 1 9 9 0 17 -3 19 -12 6z"/>
<path d="M1975 20540 c-3 -5 -1 -10 4 -10 6 0 11 5 11 10 0 6 -2 10 -4 10 -3
0 -8 -4 -11 -10z"/>
<path d="M2055 20539 c-3 -4 2 -6 10 -5 21 3 28 13 10 13 -9 0 -18 -4 -20 -8z"/>
<path d="M4336 20542 c-3 -4 4 -9 15 -9 23 -2 25 3 4 10 -8 4 -16 3 -19 -1z"/>
<path d="M5515 20531 c-3 -5 -2 -12 3 -15 5 -3 9 1 9 9 0 17 -3 19 -12 6z"/>
<path d="M5675 20529 c-4 -6 -5 -12 -2 -15 2 -3 7 2 10 11 7 17 1 20 -8 4z"/>
<path d="M2195 20511 c-3 -5 -2 -12 3 -15 5 -3 9 1 9 9 0 17 -3 19 -12 6z"/>
<path d="M5470 20505 c0 -7 30 -13 34 -7 3 4 -4 9 -15 9 -10 1 -19 0 -19 -2z"/>
<path d="M5573 20503 c4 -3 1 -13 -6 -22 -11 -14 -10 -14 5 -2 16 12 16 31 1
31 -4 0 -3 -3 0 -7z"/>
<path d="M2030 20478 c0 -4 4 -8 9 -8 6 0 12 4 15 8 3 5 -1 9 -9 9 -8 0 -15
-4 -15 -9z"/>
<path d="M5774 20476 c1 -8 5 -18 8 -22 4 -3 5 1 4 10 -1 8 -5 18 -8 22 -4 3
-5 -1 -4 -10z"/>
<path d="M2074 20462 c4 -3 14 -7 22 -8 9 -1 13 0 10 4 -4 3 -14 7 -22 8 -9 1
-13 0 -10 -4z"/>
<path d="M2139 20448 c-5 -18 -6 -38 -1 -34 7 8 12 36 6 36 -2 0 -4 -1 -5 -2z"/>
<path d="M2196 20427 c3 -10 9 -15 12 -12 3 3 0 11 -7 18 -10 9 -11 8 -5 -6z"/>
<path d="M1895 20420 c3 -5 8 -10 11 -10 2 0 4 5 4 10 0 6 -5 10 -11 10 -5 0
-7 -4 -4 -10z"/>
<path d="M1975 20420 c3 -5 8 -10 11 -10 2 0 4 5 4 10 0 6 -5 10 -11 10 -5 0
-7 -4 -4 -10z"/>
<path d="M2054 20422 c4 -3 14 -7 22 -8 9 -1 13 0 10 4 -4 3 -14 7 -22 8 -9 1
-13 0 -10 -4z"/>
<path d="M5554 20422 c4 -3 14 -7 22 -8 9 -1 13 0 10 4 -4 3 -14 7 -22 8 -9 1
-13 0 -10 -4z"/>
<path d="M5614 20422 c4 -3 14 -7 22 -8 9 -1 13 0 10 4 -4 3 -14 7 -22 8 -9 1
-13 0 -10 -4z"/>
<path d="M5735 20420 c3 -5 8 -10 11 -10 2 0 4 5 4 10 0 6 -5 10 -11 10 -5 0
-7 -4 -4 -10z"/>
<path d="M4315 20389 c-4 -6 -5 -12 -2 -15 2 -3 7 2 10 11 7 17 1 20 -8 4z"/>
<path d="M2094 20376 c1 -8 5 -18 8 -22 4 -3 5 1 4 10 -1 8 -5 18 -8 22 -4 3
-5 -1 -4 -10z"/>
<path d="M5694 20376 c1 -8 5 -18 8 -22 4 -3 5 1 4 10 -1 8 -5 18 -8 22 -4 3
-5 -1 -4 -10z"/>
<path d="M5736 20382 c-2 -4 -1 -14 4 -22 7 -11 9 -9 7 8 -1 24 -3 26 -11 14z"/>
<path d="M2153 20345 c0 -8 4 -12 9 -9 5 3 6 10 3 15 -9 13 -12 11 -12 -6z"/>
<path d="M1810 20340 c0 -5 5 -10 11 -10 5 0 7 5 4 10 -3 6 -8 10 -11 10 -2 0
-4 -4 -4 -10z"/>
<path d="M1960 20340 c-12 -7 -10 -9 7 -7 12 0 19 5 17 9 -6 10 -6 10 -24 -2z"/>
<path d="M2059 20348 c-5 -18 -6 -38 -1 -34 7 8 12 36 6 36 -2 0 -4 -1 -5 -2z"/>
<path d="M5615 20339 c-3 -4 2 -6 10 -5 21 3 28 13 10 13 -9 0 -18 -4 -20 -8z"/>
<path d="M5770 20339 c0 -5 5 -7 10 -4 6 3 10 8 10 11 0 2 -4 4 -10 4 -5 0
-10 -5 -10 -11z"/>
<path d="M5815 20340 c3 -5 8 -10 11 -10 2 0 4 5 4 10 0 6 -5 10 -11 10 -5 0
-7 -4 -4 -10z"/>
<path d="M5850 20339 c0 -5 5 -7 10 -4 6 3 10 8 10 11 0 2 -4 4 -10 4 -5 0
-10 -5 -10 -11z"/>
<path d="M1970 20299 c0 -5 5 -7 10 -4 6 3 10 8 10 11 0 2 -4 4 -10 4 -5 0
-10 -5 -10 -11z"/>
<path d="M5614 20302 c4 -3 14 -7 22 -8 9 -1 13 0 10 4 -4 3 -14 7 -22 8 -9 1
-13 0 -10 -4z"/>
<path d="M1793 20285 c0 -8 4 -12 9 -9 5 3 6 10 3 15 -9 13 -12 11 -12 -6z"/>
<path d="M4255 20280 c3 -5 8 -10 11 -10 2 0 4 5 4 10 0 6 -5 10 -11 10 -5 0
-7 -4 -4 -10z"/>
<path d="M5694 20276 c1 -8 5 -18 8 -22 4 -3 5 1 4 10 -1 8 -5 18 -8 22 -4 3
-5 -1 -4 -10z"/>
<path d="M1890 20260 c0 -5 5 -10 11 -10 5 0 7 5 4 10 -3 6 -8 10 -11 10 -2 0
-4 -4 -4 -10z"/>
<path d="M5770 20260 c0 -5 5 -10 11 -10 5 0 7 5 4 10 -3 6 -8 10 -11 10 -2 0
-4 -4 -4 -10z"/>
<path d="M5895 20260 c3 -5 8 -10 11 -10 2 0 4 5 4 10 0 6 -5 10 -11 10 -5 0
-7 -4 -4 -10z"/>
<path d="M5930 20259 c0 -5 5 -7 10 -4 6 3 10 8 10 11 0 2 -4 4 -10 4 -5 0
-10 -5 -10 -11z"/>
<path d="M1790 20240 c0 -5 5 -10 10 -10 6 0 10 5 10 10 0 6 -4 10 -10 10 -5
0 -10 -4 -10 -10z"/>
<path d="M1916 20242 c-3 -5 1 -9 9 -9 8 0 12 4 9 9 -3 4 -7 8 -9 8 -2 0 -6
-4 -9 -8z"/>
<path d="M1969 20237 c6 -8 7 -18 3 -22 -4 -5 -1 -5 6 -1 10 6 10 11 1 22 -6
8 -14 14 -16 14 -3 0 0 -6 6 -13z"/>
<path d="M5750 20241 c0 -6 4 -13 10 -16 6 -3 7 1 4 9 -7 18 -14 21 -14 7z"/>
<path d="M5935 20231 c-3 -5 -2 -12 3 -15 5 -3 9 1 9 9 0 17 -3 19 -12 6z"/>
<path d="M1690 20219 c0 -5 5 -7 10 -4 6 3 10 8 10 11 0 2 -4 4 -10 4 -5 0
-10 -5 -10 -11z"/>
<path d="M5699 20228 c-5 -18 -6 -38 -1 -34 7 8 12 36 6 36 -2 0 -4 -1 -5 -2z"/>
<path d="M5890 20219 c0 -5 5 -7 10 -4 6 3 10 8 10 11 0 2 -4 4 -10 4 -5 0
-10 -5 -10 -11z"/>
<path d="M1695 20180 c3 -5 8 -10 11 -10 2 0 4 5 4 10 0 6 -5 10 -11 10 -5 0
-7 -4 -4 -10z"/>
<path d="M1853 20183 c4 -3 1 -13 -6 -22 -11 -14 -10 -14 5 -2 16 12 16 31 1
31 -4 0 -3 -3 0 -7z"/>
<path d="M1886 20178 c3 -5 10 -6 15 -3 13 9 11 12 -6 12 -8 0 -12 -4 -9 -9z"/>
<path d="M5779 20188 c-5 -18 -6 -38 -1 -34 7 8 12 36 6 36 -2 0 -4 -1 -5 -2z"/>
<path d="M1874 20142 c4 -3 14 -7 22 -8 9 -1 13 0 10 4 -4 3 -14 7 -22 8 -9 1
-13 0 -10 -4z"/>
<path d="M5935 20140 c3 -5 8 -10 11 -10 2 0 4 5 4 10 0 6 -5 10 -11 10 -5 0
-7 -4 -4 -10z"/>
<path d="M2035 20131 c-3 -5 -2 -12 3 -15 5 -3 9 1 9 9 0 17 -3 19 -12 6z"/>
<path d="M6033 20125 c0 -8 4 -12 9 -9 5 3 6 10 3 15 -9 13 -12 11 -12 -6z"/>
<path d="M1630 20120 c0 -5 5 -10 11 -10 5 0 7 5 4 10 -3 6 -8 10 -11 10 -2 0
-4 -4 -4 -10z"/>
<path d="M5819 20128 c-5 -18 -6 -38 -1 -34 7 8 12 36 6 36 -2 0 -4 -1 -5 -2z"/>
<path d="M1735 20100 c-3 -5 -1 -10 4 -10 6 0 11 5 11 10 0 6 -2 10 -4 10 -3
0 -8 -4 -11 -10z"/>
<path d="M1775 20100 c3 -5 8 -10 11 -10 2 0 4 5 4 10 0 6 -5 10 -11 10 -5 0
-7 -4 -4 -10z"/>
<path d="M5853 20095 c0 -8 4 -12 9 -9 5 3 6 10 3 15 -9 13 -12 11 -12 -6z"/>
<path d="M1915 20089 c-4 -6 -5 -12 -2 -15 2 -3 7 2 10 11 7 17 1 20 -8 4z"/>
<path d="M6065 20080 c-3 -6 1 -7 9 -4 18 7 21 14 7 14 -6 0 -13 -4 -16 -10z"/>
<path d="M5814 20056 c1 -8 5 -18 8 -22 4 -3 5 1 4 10 -1 8 -5 18 -8 22 -4 3
-5 -1 -4 -10z"/>
<path d="M1955 20051 c-3 -5 -2 -12 3 -15 5 -3 9 1 9 9 0 17 -3 19 -12 6z"/>
<path d="M4266 20038 c3 -5 10 -6 15 -3 13 9 11 12 -6 12 -8 0 -12 -4 -9 -9z"/>
<path d="M5715 20040 c3 -5 8 -10 11 -10 2 0 4 5 4 10 0 6 -5 10 -11 10 -5 0
-7 -4 -4 -10z"/>
<path d="M1610 20020 c0 -5 5 -10 11 -10 5 0 7 5 4 10 -3 6 -8 10 -11 10 -2 0
-4 -4 -4 -10z"/>
<path d="M1650 20019 c0 -5 5 -7 10 -4 6 3 10 8 10 11 0 2 -4 4 -10 4 -5 0
-10 -5 -10 -11z"/>
<path d="M1754 20022 c4 -3 14 -7 22 -8 9 -1 13 0 10 4 -4 3 -14 7 -22 8 -9 1
-13 0 -10 -4z"/>
<path d="M5875 20019 c-3 -4 2 -6 10 -5 21 3 28 13 10 13 -9 0 -18 -4 -20 -8z"/>
<path d="M5974 20016 c1 -8 5 -18 8 -22 4 -3 5 1 4 10 -1 8 -5 18 -8 22 -4 3
-5 -1 -4 -10z"/>
<path d="M6010 20019 c0 -5 5 -7 10 -4 6 3 10 8 10 11 0 2 -4 4 -10 4 -5 0
-10 -5 -10 -11z"/>
<path d="M6013 19985 c0 -8 4 -12 9 -9 5 3 6 10 3 15 -9 13 -12 11 -12 -6z"/>
<path d="M1816 19978 c3 -5 10 -6 15 -3 13 9 11 12 -6 12 -8 0 -12 -4 -9 -9z"/>
<path d="M5915 19979 c-3 -4 2 -6 10 -5 21 3 28 13 10 13 -9 0 -18 -4 -20 -8z"/>
<path d="M4154 19969 c-3 -6 -2 -15 3 -20 5 -5 9 -1 9 11 0 23 -2 24 -12 9z"/>
<path d="M1774 19956 c1 -8 5 -18 8 -22 4 -3 5 1 4 10 -1 8 -5 18 -8 22 -4 3
-5 -1 -4 -10z"/>
<path d="M4226 19958 c3 -5 10 -6 15 -3 13 9 11 12 -6 12 -8 0 -12 -4 -9 -9z"/>
<path d="M1695 19939 c-3 -4 2 -6 10 -5 21 3 28 13 10 13 -9 0 -18 -4 -20 -8z"/>
<path d="M5934 19896 c1 -8 5 -18 8 -22 4 -3 5 1 4 10 -1 8 -5 18 -8 22 -4 3
-5 -1 -4 -10z"/>
<path d="M6980 19886 c0 -2 8 -10 18 -17 15 -13 16 -12 3 4 -13 16 -21 21 -21
13z"/>
<path d="M4395 19849 c-4 -6 -5 -12 -2 -15 2 -3 7 2 10 11 7 17 1 20 -8 4z"/>
<path d="M1999 19673 c-13 -16 -12 -17 4 -4 16 13 21 21 13 21 -2 0 -10 -8
-17 -17z"/>
<path d="M4400 19680 c-9 -6 -10 -10 -3 -10 6 0 15 5 18 10 8 12 4 12 -15 0z"/>
<path d="M5646 19678 c3 -5 10 -6 15 -3 13 9 11 12 -6 12 -8 0 -12 -4 -9 -9z"/>
<path d="M4056 19662 c-3 -4 4 -9 15 -9 23 -2 25 3 4 10 -8 4 -16 3 -19 -1z"/>
<path d="M976 19598 c3 -5 10 -6 15 -3 13 9 11 12 -6 12 -8 0 -12 -4 -9 -9z"/>
<path d="M4355 19601 c-3 -5 -2 -12 3 -15 5 -3 9 1 9 9 0 17 -3 19 -12 6z"/>
<path d="M6654 19582 c4 -3 14 -7 22 -8 9 -1 13 0 10 4 -4 3 -14 7 -22 8 -9 1
-13 0 -10 -4z"/>
<path d="M975 19560 c-3 -5 -1 -10 4 -10 6 0 11 5 11 10 0 6 -2 10 -4 10 -3 0
-8 -4 -11 -10z"/>
<path d="M6746 19562 c-3 -5 1 -9 9 -9 8 0 12 4 9 9 -3 4 -7 8 -9 8 -2 0 -6
-4 -9 -8z"/>
<path d="M4075 19549 c-4 -6 -5 -12 -2 -15 2 -3 7 2 10 11 7 17 1 20 -8 4z"/>
<path d="M1035 19531 c-3 -5 -2 -12 3 -15 5 -3 9 1 9 9 0 17 -3 19 -12 6z"/>
<path d="M6633 19525 c0 -8 4 -12 9 -9 5 3 6 10 3 15 -9 13 -12 11 -12 -6z"/>
<path d="M927 19519 c7 -7 15 -10 18 -7 3 3 -2 9 -12 12 -14 6 -15 5 -6 -5z"/>
<path d="M4269 19483 c-13 -16 -12 -17 4 -4 16 13 21 21 13 21 -2 0 -10 -8
-17 -17z"/>
<path d="M1076 19473 c-6 -14 -5 -15 5 -6 7 7 10 15 7 18 -3 3 -9 -2 -12 -12z"/>
<path d="M4015 19480 c-3 -5 -1 -10 4 -10 6 0 11 5 11 10 0 6 -2 10 -4 10 -3
0 -8 -4 -11 -10z"/>
<path d="M6659 19488 c-5 -18 -6 -38 -1 -34 7 8 12 36 6 36 -2 0 -4 -1 -5 -2z"/>
<path d="M6740 19480 c-9 -6 -10 -10 -3 -10 6 0 15 5 18 10 8 12 4 12 -15 0z"/>
<path d="M1016 19462 c-3 -5 1 -9 9 -9 8 0 12 4 9 9 -3 4 -7 8 -9 8 -2 0 -6
-4 -9 -8z"/>
<path d="M1066 19438 c3 -5 10 -6 15 -3 13 9 11 12 -6 12 -8 0 -12 -4 -9 -9z"/>
<path d="M875 19421 c-3 -5 -2 -12 3 -15 5 -3 9 1 9 9 0 17 -3 19 -12 6z"/>
<path d="M1010 19420 c0 -5 5 -10 11 -10 5 0 7 5 4 10 -3 6 -8 10 -11 10 -2 0
-4 -4 -4 -10z"/>
<path d="M1135 19420 c-3 -5 -1 -10 4 -10 6 0 11 5 11 10 0 6 -2 10 -4 10 -3
0 -8 -4 -11 -10z"/>
<path d="M6610 19419 c0 -5 5 -7 10 -4 6 3 10 8 10 11 0 2 -4 4 -10 4 -5 0
-10 -5 -10 -11z"/>
<path d="M6654 19416 c1 -8 5 -18 8 -22 4 -3 5 1 4 10 -1 8 -5 18 -8 22 -4 3
-5 -1 -4 -10z"/>
<path d="M1176 19407 c3 -10 9 -15 12 -12 3 3 0 11 -7 18 -10 9 -11 8 -5 -6z"/>
<path d="M1095 19380 c-3 -5 -1 -10 4 -10 6 0 11 5 11 10 0 6 -2 10 -4 10 -3
0 -8 -4 -11 -10z"/>
<path d="M1130 19379 c0 -5 5 -7 10 -4 6 3 10 8 10 11 0 2 -4 4 -10 4 -5 0
-10 -5 -10 -11z"/>
<path d="M6653 19345 c0 -8 4 -12 9 -9 5 3 6 10 3 15 -9 13 -12 11 -12 -6z"/>
<path d="M6535 19340 c3 -5 8 -10 11 -10 2 0 4 5 4 10 0 6 -5 10 -11 10 -5 0
-7 -4 -4 -10z"/>
<path d="M6950 19321 c0 -6 4 -12 8 -15 5 -3 9 1 9 9 0 8 -4 15 -9 15 -4 0 -8
-4 -8 -9z"/>
<path d="M995 19300 c3 -5 8 -10 11 -10 2 0 4 5 4 10 0 6 -5 10 -11 10 -5 0
-7 -4 -4 -10z"/>
<path d="M1090 19300 c0 -5 5 -10 11 -10 5 0 7 5 4 10 -3 6 -8 10 -11 10 -2 0
-4 -4 -4 -10z"/>
<path d="M956 19255 c-9 -26 -7 -32 5 -12 6 10 9 21 6 23 -2 3 -7 -2 -11 -11z"/>
<path d="M1046 19262 c-3 -5 1 -9 9 -9 8 0 12 4 9 9 -3 4 -7 8 -9 8 -2 0 -6
-4 -9 -8z"/>
<path d="M1096 19262 c-3 -4 4 -9 15 -9 23 -2 25 3 4 10 -8 4 -16 3 -19 -1z"/>
<path d="M7033 19255 c0 -8 4 -12 9 -9 5 3 6 10 3 15 -9 13 -12 11 -12 -6z"/>
<path d="M38413 19245 c-23 -7 -45 -10 -48 -7 -3 3 -5 1 -5 -5 0 -6 -10 -13
-22 -17 -22 -5 -87 -61 -119 -102 -54 -70 -68 -205 -30 -304 20 -53 88 -140
109 -140 5 0 15 -7 22 -14 6 -8 33 -22 59 -31 167 -55 335 16 409 175 21 44
26 70 26 132 0 43 -6 89 -12 103 -7 14 -18 37 -24 52 -21 43 -96 111 -152 138
-62 29 -153 38 -213 20z"/>
<path d="M799 19233 c-13 -16 -12 -17 4 -4 16 13 21 21 13 21 -2 0 -10 -8 -17
-17z"/>
<path d="M4035 19240 c-3 -5 -1 -10 4 -10 6 0 11 5 11 10 0 6 -2 10 -4 10 -3
0 -8 -4 -11 -10z"/>
<path d="M6675 19231 c-3 -5 -2 -12 3 -15 5 -3 9 1 9 9 0 17 -3 19 -12 6z"/>
<path d="M1110 19225 c0 -7 30 -13 34 -7 3 4 -4 9 -15 9 -10 1 -19 0 -19 -2z"/>
<path d="M6410 19219 c0 -5 5 -7 10 -4 6 3 10 8 10 11 0 2 -4 4 -10 4 -5 0
-10 -5 -10 -11z"/>
<path d="M6530 19219 c0 -5 5 -7 10 -4 6 3 10 8 10 11 0 2 -4 4 -10 4 -5 0
-10 -5 -10 -11z"/>
<path d="M6615 19219 c-3 -4 2 -6 10 -5 21 3 28 13 10 13 -9 0 -18 -4 -20 -8z"/>
<path d="M3920 19200 c-8 -5 -10 -10 -5 -10 6 0 17 5 25 10 8 5 11 10 5 10 -5
0 -17 -5 -25 -10z"/>
<path d="M3976 19202 c-3 -5 1 -9 9 -9 8 0 12 4 9 9 -3 4 -7 8 -9 8 -2 0 -6
-4 -9 -8z"/>
<path d="M1119 19173 c-12 -16 -12 -17 2 -6 9 7 20 9 24 5 5 -4 5 -1 1 6 -9
16 -11 15 -27 -5z"/>
<path d="M6490 19180 c0 -5 5 -10 11 -10 5 0 7 5 4 10 -3 6 -8 10 -11 10 -2 0
-4 -4 -4 -10z"/>
<path d="M6566 19178 c3 -5 10 -6 15 -3 13 9 11 12 -6 12 -8 0 -12 -4 -9 -9z"/>
<path d="M3955 19149 c-4 -6 -5 -12 -2 -15 2 -3 7 2 10 11 7 17 1 20 -8 4z"/>
<path d="M6375 19140 c-3 -5 -1 -10 4 -10 6 0 11 5 11 10 0 6 -2 10 -4 10 -3
0 -8 -4 -11 -10z"/>
<path d="M1090 19120 c0 -5 5 -10 11 -10 5 0 7 5 4 10 -3 6 -8 10 -11 10 -2 0
-4 -4 -4 -10z"/>
<path d="M1219 19128 c-5 -18 -6 -38 -1 -34 7 8 12 36 6 36 -2 0 -4 -1 -5 -2z"/>
<path d="M1179 19108 c-5 -18 -6 -38 -1 -34 7 8 12 36 6 36 -2 0 -4 -1 -5 -2z"/>
<path d="M1250 19100 c0 -5 5 -10 11 -10 5 0 7 5 4 10 -3 6 -8 10 -11 10 -2 0
-4 -4 -4 -10z"/>
<path d="M3896 19098 c3 -5 10 -6 15 -3 13 9 11 12 -6 12 -8 0 -12 -4 -9 -9z"/>
<path d="M6375 19100 c-3 -5 -1 -10 4 -10 6 0 11 5 11 10 0 6 -2 10 -4 10 -3
0 -8 -4 -11 -10z"/>
<path d="M6495 19100 c3 -5 8 -10 11 -10 2 0 4 5 4 10 0 6 -5 10 -11 10 -5 0
-7 -4 -4 -10z"/>
<path d="M3946 19078 c3 -5 10 -6 15 -3 13 9 11 12 -6 12 -8 0 -12 -4 -9 -9z"/>
<path d="M6635 19080 c3 -5 8 -10 11 -10 2 0 4 5 4 10 0 6 -5 10 -11 10 -5 0
-7 -4 -4 -10z"/>
<path d="M6826 19082 c-3 -5 1 -9 9 -9 8 0 12 4 9 9 -3 4 -7 8 -9 8 -2 0 -6
-4 -9 -8z"/>
<path d="M6373 19065 c0 -8 4 -12 9 -9 5 3 6 10 3 15 -9 13 -12 11 -12 -6z"/>
<path d="M6190 19036 c7 -7 13 -7 20 0 6 6 3 10 -10 10 -13 0 -16 -4 -10 -10z"/>
<path d="M1175 19019 c-3 -4 2 -6 10 -5 21 3 28 13 10 13 -9 0 -18 -4 -20 -8z"/>
<path d="M1296 19018 c3 -4 11 -5 19 -1 21 7 19 12 -4 10 -11 0 -18 -5 -15 -9z"/>
<path d="M6370 19020 c0 -5 5 -10 11 -10 5 0 7 5 4 10 -3 6 -8 10 -11 10 -2 0
-4 -4 -4 -10z"/>
<path d="M6406 19022 c-3 -5 1 -9 9 -9 8 0 12 4 9 9 -3 4 -7 8 -9 8 -2 0 -6
-4 -9 -8z"/>
<path d="M6454 19022 c4 -3 14 -7 22 -8 9 -1 13 0 10 4 -4 3 -14 7 -22 8 -9 1
-13 0 -10 -4z"/>
<path d="M6516 19013 c-6 -14 -5 -15 5 -6 7 7 10 15 7 18 -3 3 -9 -2 -12 -12z"/>
<path d="M1393 19005 c0 -8 4 -12 9 -9 5 3 6 10 3 15 -9 13 -12 11 -12 -6z"/>
<path d="M1076 19002 c-3 -5 1 -9 9 -9 8 0 12 4 9 9 -3 4 -7 8 -9 8 -2 0 -6
-4 -9 -8z"/>
<path d="M1435 19001 c-3 -5 -2 -12 3 -15 5 -3 9 1 9 9 0 17 -3 19 -12 6z"/>
<path d="M1470 19000 c0 -5 5 -10 11 -10 5 0 7 5 4 10 -3 6 -8 10 -11 10 -2 0
-4 -4 -4 -10z"/>
<path d="M6190 19000 c0 -5 5 -10 11 -10 5 0 7 5 4 10 -3 6 -8 10 -11 10 -2 0
-4 -4 -4 -10z"/>
<path d="M6275 19001 c-3 -5 -2 -12 3 -15 5 -3 9 1 9 9 0 17 -3 19 -12 6z"/>
<path d="M6595 19000 c3 -5 8 -10 11 -10 2 0 4 5 4 10 0 6 -5 10 -11 10 -5 0
-7 -4 -4 -10z"/>
<path d="M1296 18982 c-3 -4 4 -9 15 -9 23 -2 25 3 4 10 -8 4 -16 3 -19 -1z"/>
<path d="M1509 18963 c-13 -16 -12 -17 4 -4 9 7 17 15 17 17 0 8 -8 3 -21 -13z"/>
<path d="M6150 18960 c0 -5 5 -10 11 -10 5 0 7 5 4 10 -3 6 -8 10 -11 10 -2 0
-4 -4 -4 -10z"/>
<path d="M6186 18958 c3 -5 10 -6 15 -3 13 9 11 12 -6 12 -8 0 -12 -4 -9 -9z"/>
<path d="M6276 18958 c3 -5 10 -6 15 -3 13 9 11 12 -6 12 -8 0 -12 -4 -9 -9z"/>
<path d="M1234 18942 c4 -3 14 -7 22 -8 9 -1 13 0 10 4 -4 3 -14 7 -22 8 -9 1
-13 0 -10 -4z"/>
<path d="M1410 18940 c0 -5 5 -10 11 -10 5 0 7 5 4 10 -3 6 -8 10 -11 10 -2 0
-4 -4 -4 -10z"/>
<path d="M1530 18939 c0 -5 5 -7 10 -4 6 3 10 8 10 11 0 2 -4 4 -10 4 -5 0
-10 -5 -10 -11z"/>
<path d="M3835 18920 c3 -5 8 -10 11 -10 2 0 4 5 4 10 0 6 -5 10 -11 10 -5 0
-7 -4 -4 -10z"/>
<path d="M6106 18922 c-3 -5 1 -9 9 -9 8 0 12 4 9 9 -3 4 -7 8 -9 8 -2 0 -6
-4 -9 -8z"/>
<path d="M6956 18918 c3 -5 10 -6 15 -3 13 9 11 12 -6 12 -8 0 -12 -4 -9 -9z"/>
<path d="M1295 18899 c-3 -4 2 -6 10 -5 21 3 28 13 10 13 -9 0 -18 -4 -20 -8z"/>
<path d="M1416 18902 c-3 -5 1 -9 9 -9 8 0 12 4 9 9 -3 4 -7 8 -9 8 -2 0 -6
-4 -9 -8z"/>
<path d="M1530 18899 c0 -5 5 -7 10 -4 6 3 10 8 10 11 0 2 -4 4 -10 4 -5 0
-10 -5 -10 -11z"/>
<path d="M1575 18900 c3 -5 8 -10 11 -10 2 0 4 5 4 10 0 6 -5 10 -11 10 -5 0
-7 -4 -4 -10z"/>
<path d="M6253 18895 c0 -8 4 -12 9 -9 5 3 6 10 3 15 -9 13 -12 11 -12 -6z"/>
<path d="M6286 18898 c3 -5 10 -6 15 -3 13 9 11 12 -6 12 -8 0 -12 -4 -9 -9z"/>
<path d="M6334 18902 c4 -3 14 -7 22 -8 9 -1 13 0 10 4 -4 3 -14 7 -22 8 -9 1
-13 0 -10 -4z"/>
<path d="M6486 18878 c3 -5 10 -6 15 -3 13 9 11 12 -6 12 -8 0 -12 -4 -9 -9z"/>
<path d="M1310 18860 c0 -5 5 -10 11 -10 5 0 7 5 4 10 -3 6 -8 10 -11 10 -2 0
-4 -4 -4 -10z"/>
<path d="M1570 18860 c0 -5 5 -10 11 -10 5 0 7 5 4 10 -3 6 -8 10 -11 10 -2 0
-4 -4 -4 -10z"/>
<path d="M3836 18853 c-6 -14 -5 -15 5 -6 7 7 10 15 7 18 -3 3 -9 -2 -12 -12z"/>
<path d="M6033 18845 c0 -8 4 -12 9 -9 5 3 6 10 3 15 -9 13 -12 11 -12 -6z"/>
<path d="M6310 18841 c0 -6 4 -13 10 -16 6 -3 7 1 4 9 -7 18 -14 21 -14 7z"/>
<path d="M1446 18818 c3 -5 10 -6 15 -3 13 9 11 12 -6 12 -8 0 -12 -4 -9 -9z"/>
<path d="M1575 18820 c-3 -5 -1 -10 4 -10 6 0 11 5 11 10 0 6 -2 10 -4 10 -3
0 -8 -4 -11 -10z"/>
<path d="M1650 18820 c0 -5 5 -10 11 -10 5 0 7 5 4 10 -3 6 -8 10 -11 10 -2 0
-4 -4 -4 -10z"/>
<path d="M6090 18819 c0 -5 5 -7 10 -4 6 3 10 8 10 11 0 2 -4 4 -10 4 -5 0
-10 -5 -10 -11z"/>
<path d="M6135 18820 c3 -5 8 -10 11 -10 2 0 4 5 4 10 0 6 -5 10 -11 10 -5 0
-7 -4 -4 -10z"/>
<path d="M6255 18819 c-3 -4 2 -6 10 -5 21 3 28 13 10 13 -9 0 -18 -4 -20 -8z"/>
<path d="M3830 18779 c0 -5 5 -7 10 -4 6 3 10 8 10 11 0 2 -4 4 -10 4 -5 0
-10 -5 -10 -11z"/>
<path d="M6015 18780 c-3 -5 -1 -10 4 -10 6 0 11 5 11 10 0 6 -2 10 -4 10 -3
0 -8 -4 -11 -10z"/>
<path d="M6175 18780 c3 -5 8 -10 11 -10 2 0 4 5 4 10 0 6 -5 10 -11 10 -5 0
-7 -4 -4 -10z"/>
<path d="M1515 18769 c-4 -6 -5 -12 -2 -15 2 -3 7 2 10 11 7 17 1 20 -8 4z"/>
<path d="M1633 18765 c0 -8 4 -12 9 -9 5 3 6 10 3 15 -9 13 -12 11 -12 -6z"/>
<path d="M3773 18751 c0 -11 5 -18 9 -15 4 3 5 11 1 19 -7 21 -12 19 -10 -4z"/>
<path d="M5956 18762 c-3 -5 1 -9 9 -9 8 0 12 4 9 9 -3 4 -7 8 -9 8 -2 0 -6
-4 -9 -8z"/>
<path d="M1455 18741 c-3 -5 -2 -12 3 -15 5 -3 9 1 9 9 0 17 -3 19 -12 6z"/>
<path d="M6000 18740 c-12 -7 -10 -9 7 -7 12 0 19 5 17 9 -6 10 -6 10 -24 -2z"/>
<path d="M6175 18741 c-3 -5 -2 -12 3 -15 5 -3 9 1 9 9 0 17 -3 19 -12 6z"/>
<path d="M1756 18722 c-3 -5 1 -9 9 -9 8 0 12 4 9 9 -3 4 -7 8 -9 8 -2 0 -6
-4 -9 -8z"/>
<path d="M4095 18720 c-3 -5 -1 -10 4 -10 6 0 11 5 11 10 0 6 -2 10 -4 10 -3
0 -8 -4 -11 -10z"/>
<path d="M1430 18701 c0 -6 4 -13 10 -16 6 -3 7 1 4 9 -7 18 -14 21 -14 7z"/>
<path d="M1475 18699 c-3 -4 2 -6 10 -5 21 3 28 13 10 13 -9 0 -18 -4 -20 -8z"/>
<path d="M1535 18699 c-3 -4 2 -6 10 -5 21 3 28 13 10 13 -9 0 -18 -4 -20 -8z"/>
<path d="M1653 18695 c0 -8 4 -12 9 -9 5 3 6 10 3 15 -9 13 -12 11 -12 -6z"/>
<path d="M5930 18699 c0 -5 5 -7 10 -4 6 3 10 8 10 11 0 2 -4 4 -10 4 -5 0
-10 -5 -10 -11z"/>
<path d="M4029 18683 c-13 -16 -12 -17 4 -4 16 13 21 21 13 21 -2 0 -10 -8
-17 -17z"/>
<path d="M1713 18675 c0 -8 4 -12 9 -9 5 3 6 10 3 15 -9 13 -12 11 -12 -6z"/>
<path d="M1655 18660 c-3 -5 -1 -10 4 -10 6 0 11 5 11 10 0 6 -2 10 -4 10 -3
0 -8 -4 -11 -10z"/>
<path d="M5935 18660 c3 -5 8 -10 11 -10 2 0 4 5 4 10 0 6 -5 10 -11 10 -5 0
-7 -4 -4 -10z"/>
<path d="M6019 18668 c-5 -15 -4 -50 1 -53 3 -2 6 9 6 26 0 24 -3 37 -7 27z"/>
<path d="M6095 18660 c3 -5 8 -10 11 -10 2 0 4 5 4 10 0 6 -5 10 -11 10 -5 0
-7 -4 -4 -10z"/>
<path d="M6630 18659 c0 -5 5 -7 10 -4 6 3 10 8 10 11 0 2 -4 4 -10 4 -5 0
-10 -5 -10 -11z"/>
<path d="M1793 18645 c0 -8 4 -12 9 -9 5 3 6 10 3 15 -9 13 -12 11 -12 -6z"/>
<path d="M3796 18647 c3 -10 9 -15 12 -12 3 3 0 11 -7 18 -10 9 -11 8 -5 -6z"/>
<path d="M1595 18630 c-4 -6 -11 -7 -17 -4 -7 4 -8 2 -4 -5 6 -9 11 -9 22 0
14 11 18 19 10 19 -3 0 -8 -5 -11 -10z"/>
<path d="M5895 18620 c3 -5 8 -10 11 -10 2 0 4 5 4 10 0 6 -5 10 -11 10 -5 0
-7 -4 -4 -10z"/>
<path d="M6095 18619 c-3 -4 2 -6 10 -5 21 3 28 13 10 13 -9 0 -18 -4 -20 -8z"/>
<path d="M1596 18593 c-6 -14 -5 -15 5 -6 7 7 10 15 7 18 -3 3 -9 -2 -12 -12z"/>
<path d="M1786 18602 c-3 -5 1 -9 9 -9 8 0 12 4 9 9 -3 4 -7 8 -9 8 -2 0 -6
-4 -9 -8z"/>
<path d="M6170 18606 c0 -2 7 -7 16 -10 8 -3 12 -2 9 4 -6 10 -25 14 -25 6z"/>
<path d="M1634 18582 c4 -3 14 -7 22 -8 9 -1 13 0 10 4 -4 3 -14 7 -22 8 -9 1
-13 0 -10 -4z"/>
<path d="M1696 18578 c3 -5 10 -6 15 -3 13 9 11 12 -6 12 -8 0 -12 -4 -9 -9z"/>
<path d="M1736 18582 c-2 -4 -1 -14 4 -22 7 -11 9 -9 7 8 -1 24 -3 26 -11 14z"/>
<path d="M5815 18580 c3 -5 8 -10 11 -10 2 0 4 5 4 10 0 6 -5 10 -11 10 -5 0
-7 -4 -4 -10z"/>
<path d="M5890 18579 c0 -5 5 -7 10 -4 6 3 10 8 10 11 0 2 -4 4 -10 4 -5 0
-10 -5 -10 -11z"/>
<path d="M5976 18578 c3 -5 10 -6 15 -3 13 9 11 12 -6 12 -8 0 -12 -4 -9 -9z"/>
<path d="M6015 18581 c-3 -5 -2 -12 3 -15 5 -3 9 1 9 9 0 17 -3 19 -12 6z"/>
<path d="M1655 18539 c-3 -4 2 -6 10 -5 21 3 28 13 10 13 -9 0 -18 -4 -20 -8z"/>
<path d="M1776 18538 c3 -4 11 -5 19 -1 21 7 19 12 -4 10 -11 0 -18 -5 -15 -9z"/>
<path d="M5933 18511 c0 -11 5 -18 9 -15 4 3 5 11 1 19 -7 21 -12 19 -10 -4z"/>
<path d="M1696 18501 c-3 -5 2 -15 12 -22 15 -12 16 -12 5 2 -7 9 -10 19 -6
22 3 4 4 7 0 7 -3 0 -8 -4 -11 -9z"/>
<path d="M1776 18502 c-3 -4 4 -9 15 -9 23 -2 25 3 4 10 -8 4 -16 3 -19 -1z"/>
<path d="M3695 18499 c-3 -4 2 -6 10 -5 21 3 28 13 10 13 -9 0 -18 -4 -20 -8z"/>
<path d="M5770 18500 c0 -5 5 -10 11 -10 5 0 7 5 4 10 -3 6 -8 10 -11 10 -2 0
-4 -4 -4 -10z"/>
<path d="M5895 18500 c-3 -5 -1 -10 4 -10 6 0 11 5 11 10 0 6 -2 10 -4 10 -3
0 -8 -4 -11 -10z"/>
<path d="M6013 18495 c0 -8 4 -12 9 -9 5 3 6 10 3 15 -9 13 -12 11 -12 -6z"/>
<path d="M1835 18491 c-3 -5 -2 -12 3 -15 5 -3 9 1 9 9 0 17 -3 19 -12 6z"/>
<path d="M2429 18483 c-13 -16 -12 -17 4 -4 9 7 17 15 17 17 0 8 -8 3 -21 -13z"/>
<path d="M6555 18491 c-3 -5 -2 -12 3 -15 5 -3 9 1 9 9 0 17 -3 19 -12 6z"/>
<path d="M1747 18479 c7 -7 15 -10 18 -7 3 3 -2 9 -12 12 -14 6 -15 5 -6 -5z"/>
<path d="M1870 18486 c0 -2 7 -7 16 -10 8 -3 12 -2 9 4 -6 10 -25 14 -25 6z"/>
<path d="M5733 18455 c0 -8 4 -12 9 -9 5 3 6 10 3 15 -9 13 -12 11 -12 -6z"/>
<path d="M5974 18456 c1 -8 5 -18 8 -22 4 -3 5 1 4 10 -1 8 -5 18 -8 22 -4 3
-5 -1 -4 -10z"/>
<path d="M6036 18453 c-6 -14 -5 -15 5 -6 7 7 10 15 7 18 -3 3 -9 -2 -12 -12z"/>
<path d="M5193 18445 c0 -8 4 -12 9 -9 5 3 6 10 3 15 -9 13 -12 11 -12 -6z"/>
<path d="M1556 18442 c-3 -5 1 -9 9 -9 8 0 12 4 9 9 -3 4 -7 8 -9 8 -2 0 -6
-4 -9 -8z"/>
<path d="M5275 18441 c-3 -5 -2 -12 3 -15 5 -3 9 1 9 9 0 17 -3 19 -12 6z"/>
<path d="M5830 18440 c0 -5 5 -10 10 -10 6 0 10 5 10 10 0 6 -4 10 -10 10 -5
0 -10 -4 -10 -10z"/>
<path d="M3715 18429 c-4 -6 -5 -12 -2 -15 2 -3 7 2 10 11 7 17 1 20 -8 4z"/>
<path d="M1715 18419 c-3 -4 2 -6 10 -5 21 3 28 13 10 13 -9 0 -18 -4 -20 -8z"/>
<path d="M1774 18422 c4 -3 14 -7 22 -8 9 -1 13 0 10 4 -4 3 -14 7 -22 8 -9 1
-13 0 -10 -4z"/>
<path d="M1896 18418 c3 -5 10 -6 15 -3 13 9 11 12 -6 12 -8 0 -12 -4 -9 -9z"/>
<path d="M1935 18420 c-3 -5 -1 -10 4 -10 6 0 11 5 11 10 0 6 -2 10 -4 10 -3
0 -8 -4 -11 -10z"/>
<path d="M5736 18422 c-3 -4 4 -9 15 -9 23 -2 25 3 4 10 -8 4 -16 3 -19 -1z"/>
<path d="M5893 18409 c-2 -23 3 -25 10 -4 4 8 3 16 -1 19 -4 3 -9 -4 -9 -15z"/>
<path d="M4150 18416 c0 -2 8 -10 18 -17 15 -13 16 -12 3 4 -13 16 -21 21 -21
13z"/>
<path d="M1355 18400 c-3 -5 -1 -10 4 -10 6 0 11 5 11 10 0 6 -2 10 -4 10 -3
0 -8 -4 -11 -10z"/>
<path d="M5853 18391 c0 -11 5 -18 9 -15 4 3 5 11 1 19 -7 21 -12 19 -10 -4z"/>
<path d="M1775 18391 c-3 -5 -2 -12 3 -15 5 -3 9 1 9 9 0 17 -3 19 -12 6z"/>
<path d="M1676 18373 c-6 -14 -5 -15 5 -6 7 7 10 15 7 18 -3 3 -9 -2 -12 -12z"/>
<path d="M1930 18380 c0 -5 5 -10 11 -10 5 0 7 5 4 10 -3 6 -8 10 -11 10 -2 0
-4 -4 -4 -10z"/>
<path d="M2050 18379 c0 -5 5 -7 10 -4 6 3 10 8 10 11 0 2 -4 4 -10 4 -5 0
-10 -5 -10 -11z"/>
<path d="M5750 18385 c0 -7 30 -13 34 -7 3 4 -4 9 -15 9 -10 1 -19 0 -19 -2z"/>
<path d="M5673 18365 c0 -8 4 -15 9 -15 4 0 8 4 8 9 0 6 -4 12 -8 15 -5 3 -9
-1 -9 -9z"/>
<path d="M1833 18355 c0 -8 4 -12 9 -9 4 3 8 9 8 15 0 5 -4 9 -8 9 -5 0 -9 -7
-9 -15z"/>
<path d="M3650 18360 c0 -5 5 -10 11 -10 5 0 7 5 4 10 -3 6 -8 10 -11 10 -2 0
-4 -4 -4 -10z"/>
<path d="M1894 18336 c1 -8 5 -18 8 -22 4 -3 5 1 4 10 -1 8 -5 18 -8 22 -4 3
-5 -1 -4 -10z"/>
<path d="M5853 18335 c0 -8 4 -12 9 -9 5 3 6 10 3 15 -9 13 -12 11 -12 -6z"/>
<path d="M1970 18300 c0 -5 5 -10 11 -10 5 0 7 5 4 10 -3 6 -8 10 -11 10 -2 0
-4 -4 -4 -10z"/>
<path d="M2035 18299 c-3 -4 2 -6 10 -5 21 3 28 13 10 13 -9 0 -18 -4 -20 -8z"/>
<path d="M5610 18299 c0 -5 5 -7 10 -4 6 3 10 8 10 11 0 2 -4 4 -10 4 -5 0
-10 -5 -10 -11z"/>
<path d="M5680 18300 c-12 -7 -10 -9 7 -7 12 0 19 5 17 9 -6 10 -6 10 -24 -2z"/>
<path d="M5736 18302 c-3 -5 1 -9 9 -9 8 0 12 4 9 9 -3 4 -7 8 -9 8 -2 0 -6
-4 -9 -8z"/>
<path d="M5814 18296 c1 -8 5 -18 8 -22 4 -3 5 1 4 10 -1 8 -5 18 -8 22 -4 3
-5 -1 -4 -10z"/>
<path d="M5875 18300 c-3 -5 -1 -10 4 -10 6 0 11 5 11 10 0 6 -2 10 -4 10 -3
0 -8 -4 -11 -10z"/>
<path d="M1857 18275 c-4 -8 -3 -16 1 -19 4 -3 9 4 9 15 2 23 -3 25 -10 4z"/>
<path d="M2133 18255 c0 -8 4 -12 9 -9 5 3 6 10 3 15 -9 13 -12 11 -12 -6z"/>
<path d="M5526 18262 c-3 -5 1 -9 9 -9 8 0 12 4 9 9 -3 4 -7 8 -9 8 -2 0 -6
-4 -9 -8z"/>
<path d="M1939 18248 c-5 -18 -6 -38 -1 -34 7 8 12 36 6 36 -2 0 -4 -1 -5 -2z"/>
<path d="M2947 18239 c7 -7 15 -10 18 -7 3 3 -2 9 -12 12 -14 6 -15 5 -6 -5z"/>
<path d="M2014 18222 c4 -3 14 -7 22 -8 9 -1 13 0 10 4 -4 3 -14 7 -22 8 -9 1
-13 0 -10 -4z"/>
<path d="M2176 18218 c3 -5 10 -6 15 -3 13 9 11 12 -6 12 -8 0 -12 -4 -9 -9z"/>
<path d="M2710 18220 c0 -5 5 -10 11 -10 5 0 7 5 4 10 -3 6 -8 10 -11 10 -2 0
-4 -4 -4 -10z"/>
<path d="M3370 18219 c0 -5 5 -7 10 -4 6 3 10 8 10 11 0 2 -4 4 -10 4 -5 0
-10 -5 -10 -11z"/>
<path d="M3455 18220 c3 -5 8 -10 11 -10 2 0 4 5 4 10 0 6 -5 10 -11 10 -5 0
-7 -4 -4 -10z"/>
<path d="M3595 18220 c-3 -5 -1 -10 4 -10 6 0 11 5 11 10 0 6 -2 10 -4 10 -3
0 -8 -4 -11 -10z"/>
<path d="M5526 18218 c3 -5 10 -6 15 -3 13 9 11 12 -6 12 -8 0 -12 -4 -9 -9z"/>
<path d="M5576 18218 c3 -5 10 -6 15 -3 13 9 11 12 -6 12 -8 0 -12 -4 -9 -9z"/>
<path d="M5659 18228 c-5 -18 -6 -38 -1 -34 7 8 12 36 6 36 -2 0 -4 -1 -5 -2z"/>
<path d="M1796 18202 c-3 -5 1 -9 9 -9 8 0 12 4 9 9 -3 4 -7 8 -9 8 -2 0 -6
-4 -9 -8z"/>
<path d="M2906 18202 c-3 -5 1 -9 9 -9 8 0 12 4 9 9 -3 4 -7 8 -9 8 -2 0 -6
-4 -9 -8z"/>
<path d="M3536 18182 c-3 -5 1 -9 9 -9 8 0 12 4 9 9 -3 4 -7 8 -9 8 -2 0 -6
-4 -9 -8z"/>
<path d="M5686 18182 c-3 -5 1 -9 9 -9 8 0 12 4 9 9 -3 4 -7 8 -9 8 -2 0 -6
-4 -9 -8z"/>
<path d="M2095 18160 c3 -5 8 -10 11 -10 2 0 4 5 4 10 0 6 -5 10 -11 10 -5 0
-7 -4 -4 -10z"/>
<path d="M2146 18158 c3 -5 10 -6 15 -3 13 9 11 12 -6 12 -8 0 -12 -4 -9 -9z"/>
<path d="M2195 18159 c-3 -4 2 -6 10 -5 21 3 28 13 10 13 -9 0 -18 -4 -20 -8z"/>
<path d="M3334 18156 c1 -8 5 -18 8 -22 4 -3 5 1 4 10 -1 8 -5 18 -8 22 -4 3
-5 -1 -4 -10z"/>
<path d="M3457 18155 c-4 -8 -3 -16 1 -19 4 -3 9 4 9 15 2 23 -3 25 -10 4z"/>
<path d="M5617 18155 c-4 -8 -3 -16 1 -19 4 -3 9 4 9 15 2 23 -3 25 -10 4z"/>
<path d="M6035 18160 c-3 -5 -1 -10 4 -10 6 0 11 5 11 10 0 6 -2 10 -4 10 -3
0 -8 -4 -11 -10z"/>
<path d="M3115 18141 c-3 -5 -2 -12 3 -15 5 -3 9 1 9 9 0 17 -3 19 -12 6z"/>
<path d="M3419 18148 c-5 -18 -6 -38 -1 -34 7 8 12 36 6 36 -2 0 -4 -1 -5 -2z"/>
<path d="M2100 18120 c-9 -6 -10 -10 -3 -10 6 0 15 5 18 10 8 12 4 12 -15 0z"/>
<path d="M5185 18120 c-3 -6 1 -7 9 -4 18 7 21 14 7 14 -6 0 -13 -4 -16 -10z"/>
<path d="M5475 18109 c-4 -6 -5 -12 -2 -15 2 -3 7 2 10 11 7 17 1 20 -8 4z"/>
<path d="M3339 18108 c-5 -18 -6 -38 -1 -34 7 8 12 36 6 36 -2 0 -4 -1 -5 -2z"/>
<path d="M2310 18079 c0 -5 5 -7 10 -4 6 3 10 8 10 11 0 2 -4 4 -10 4 -5 0
-10 -5 -10 -11z"/>
<path d="M3226 18082 c-3 -5 1 -9 9 -9 8 0 12 4 9 9 -3 4 -7 8 -9 8 -2 0 -6
-4 -9 -8z"/>
<path d="M5387 18079 c7 -7 15 -10 18 -7 3 3 -2 9 -12 12 -14 6 -15 5 -6 -5z"/>
<path d="M3390 18060 c0 -5 5 -10 11 -10 5 0 7 5 4 10 -3 6 -8 10 -11 10 -2 0
-4 -4 -4 -10z"/>
<path d="M5956 18007 c3 -10 9 -15 12 -12 3 3 0 11 -7 18 -10 9 -11 8 -5 -6z"/>
<path d="M2759 17993 c-13 -16 -12 -17 4 -4 16 13 21 21 13 21 -2 0 -10 -8
-17 -17z"/>
<path d="M1510 17959 c0 -5 5 -7 10 -4 6 3 10 8 10 11 0 2 -4 4 -10 4 -5 0
-10 -5 -10 -11z"/>
<path d="M3416 17918 c3 -5 10 -6 15 -3 13 9 11 12 -6 12 -8 0 -12 -4 -9 -9z"/>
<path d="M3110 17881 c0 -6 4 -13 10 -16 6 -3 7 1 4 9 -7 18 -14 21 -14 7z"/>
<path d="M3226 17878 c3 -5 10 -6 15 -3 13 9 11 12 -6 12 -8 0 -12 -4 -9 -9z"/>
<path d="M3470 17886 c0 -2 7 -7 16 -10 8 -3 12 -2 9 4 -6 10 -25 14 -25 6z"/>
<path d="M5790 17839 c0 -5 5 -7 10 -4 6 3 10 8 10 11 0 2 -4 4 -10 4 -5 0
-10 -5 -10 -11z"/>
<path d="M3680 17820 c-9 -6 -10 -10 -3 -10 6 0 15 5 18 10 8 12 4 12 -15 0z"/>
<path d="M2115 17800 c3 -5 8 -10 11 -10 2 0 4 5 4 10 0 6 -5 10 -11 10 -5 0
-7 -4 -4 -10z"/>
<path d="M3640 17760 c-9 -6 -10 -10 -3 -10 6 0 15 5 18 10 8 12 4 12 -15 0z"/>
<path d="M3276 17633 c-6 -14 -5 -15 5 -6 7 7 10 15 7 18 -3 3 -9 -2 -12 -12z"/>
<path d="M2873 17605 c0 -8 4 -12 9 -9 5 3 6 10 3 15 -9 13 -12 11 -12 -6z"/>
</g>
</svg>
